<mxfile host="app.diagrams.net" modified="2022-06-27T11:12:02.511Z" agent="5.0 (Windows)" etag="WgJG0M7a1qDIWwvpnV0O" version="20.0.3" type="github">
  <diagram id="rOPN5AsW_ezYcGABef81" name="Page-1">
    <mxGraphModel dx="2343" dy="2400" grid="1" gridSize="10" guides="1" tooltips="1" connect="1" arrows="1" fold="1" page="1" pageScale="1" pageWidth="850" pageHeight="1100" math="0" shadow="0">
      <root>
        <mxCell id="0" />
        <mxCell id="1" parent="0" />
        <mxCell id="SqE_fc_OxPAuAf_JFMiW-1" value="Outer Node" style="ellipse;whiteSpace=wrap;html=1;aspect=fixed;fillColor=#f8cecc;strokeColor=#b85450;" vertex="1" parent="1">
          <mxGeometry x="416.25" y="305.5" width="177.5" height="177.5" as="geometry" />
        </mxCell>
        <mxCell id="SqE_fc_OxPAuAf_JFMiW-6" value="" style="strokeWidth=2;html=1;shape=mxgraph.flowchart.annotation_1;align=left;pointerEvents=1;rotation=90;" vertex="1" parent="1">
          <mxGeometry x="484.49" y="487.52" width="28.25" height="133.21" as="geometry" />
        </mxCell>
        <mxCell id="SqE_fc_OxPAuAf_JFMiW-7" value="" style="strokeWidth=2;html=1;shape=mxgraph.flowchart.annotation_1;align=left;pointerEvents=1;rotation=90;" vertex="1" parent="1">
          <mxGeometry x="214.36" y="486.36" width="25" height="130.73" as="geometry" />
        </mxCell>
        <mxCell id="SqE_fc_OxPAuAf_JFMiW-8" value="&lt;a href=&quot;https://docs.substrate.io/main-docs/fundamentals/state-transitions-and-storage/&quot; hreflang=&quot;en&quot;&gt;Storage&lt;/a&gt;&lt;br&gt;&lt;font style=&quot;font-size: 6px;&quot;&gt;The outer node persists the evolving state of a Substrate blockchain &lt;br&gt;using a simple and highly efficient key-value storage layer.&lt;/font&gt;" style="rounded=1;whiteSpace=wrap;html=1;absoluteArcSize=1;arcSize=14;strokeWidth=2;" vertex="1" parent="1">
          <mxGeometry x="110" y="560" width="100" height="100" as="geometry" />
        </mxCell>
        <mxCell id="SqE_fc_OxPAuAf_JFMiW-9" value="&lt;font style=&quot;font-size: 6px;&quot;&gt;&lt;a style=&quot;font-size: 8px;&quot; href=&quot;https://docs.substrate.io/main-docs/fundamentals/node-and-network-types/&quot; hreflang=&quot;en&quot;&gt;Peer-to-peer networking&lt;br&gt;&lt;/a&gt;The outer node uses the Rust implementation of the &lt;a rel=&quot;noreferrer noopener&quot; target=&quot;_blank&quot; href=&quot;https://libp2p.io/&quot;&gt;&lt;code class=&quot;language-text&quot;&gt;libp2p&lt;/code&gt; network stack&lt;/a&gt; to communicate with other network participants.&lt;/font&gt;" style="rounded=1;whiteSpace=wrap;html=1;absoluteArcSize=1;arcSize=14;strokeWidth=2;" vertex="1" parent="1">
          <mxGeometry x="250" y="560" width="100" height="100" as="geometry" />
        </mxCell>
        <mxCell id="SqE_fc_OxPAuAf_JFMiW-10" value="&lt;div&gt;&lt;font style=&quot;font-size: 12px;&quot;&gt;&lt;br&gt;&lt;/font&gt;&lt;/div&gt;&lt;div&gt;&lt;font style=&quot;font-size: 12px;&quot;&gt;&lt;a href=&quot;https://docs.substrate.io/main-docs/fundamentals/consensus/&quot; hreflang=&quot;en&quot;&gt;Consensus&lt;/a&gt;&lt;/font&gt;&lt;/div&gt;&lt;div align=&quot;center&quot;&gt;&lt;font style=&quot;font-size: 7px;&quot;&gt;The outer node communicates with other network participants to ensure they agree on the state of the blockchain.&lt;/font&gt;&lt;/div&gt;" style="rounded=1;whiteSpace=wrap;html=1;absoluteArcSize=1;arcSize=14;strokeWidth=2;" vertex="1" parent="1">
          <mxGeometry x="385" y="560" width="100" height="100" as="geometry" />
        </mxCell>
        <mxCell id="SqE_fc_OxPAuAf_JFMiW-11" value="&lt;font style=&quot;font-size: 6px;&quot;&gt;&lt;a style=&quot;font-size: 8px;&quot; href=&quot;https://docs.substrate.io/main-docs/fundamentals/node-and-network-types/&quot; hreflang=&quot;en&quot;&gt;RPC&lt;br&gt;&lt;/a&gt;&lt;/font&gt;&lt;font style=&quot;font-size: 7px;&quot;&gt;The outer node accepts inbound HTTP and WebSocket requests to allow blockchain users to interact with the network.&lt;/font&gt;" style="rounded=1;whiteSpace=wrap;html=1;absoluteArcSize=1;arcSize=14;strokeWidth=2;" vertex="1" parent="1">
          <mxGeometry x="520" y="560" width="100" height="100" as="geometry" />
        </mxCell>
        <mxCell id="SqE_fc_OxPAuAf_JFMiW-12" value="" style="strokeWidth=2;html=1;shape=mxgraph.flowchart.annotation_1;align=left;pointerEvents=1;rotation=90;" vertex="1" parent="1">
          <mxGeometry x="622.13" y="483" width="20" height="133.21" as="geometry" />
        </mxCell>
        <mxCell id="SqE_fc_OxPAuAf_JFMiW-13" value="&lt;div&gt;&lt;font style=&quot;font-size: 12px;&quot;&gt;&lt;a href=&quot;https://docs.substrate.io/&quot; hreflang=&quot;en&quot;&gt;Telemetry&lt;/a&gt;&lt;br&gt;&lt;/font&gt;&lt;/div&gt;&lt;div&gt;&lt;br&gt;&lt;/div&gt;&lt;div style=&quot;font-size: 8px;&quot;&gt;The outer node collects and provides access to node metrics through an embedded &lt;a rel=&quot;noreferrer noopener&quot; target=&quot;_blank&quot; href=&quot;https://prometheus.io/&quot;&gt;Prometheus&lt;/a&gt; server.&lt;/div&gt;" style="rounded=1;whiteSpace=wrap;html=1;absoluteArcSize=1;arcSize=14;strokeWidth=2;" vertex="1" parent="1">
          <mxGeometry x="660" y="560" width="100" height="100" as="geometry" />
        </mxCell>
        <mxCell id="SqE_fc_OxPAuAf_JFMiW-14" value="" style="strokeWidth=2;html=1;shape=mxgraph.flowchart.annotation_1;align=left;pointerEvents=1;rotation=90;" vertex="1" parent="1">
          <mxGeometry x="766.63" y="471.5" width="20" height="156.21" as="geometry" />
        </mxCell>
        <mxCell id="SqE_fc_OxPAuAf_JFMiW-15" value="&lt;div&gt;&lt;font style=&quot;font-size: 12px;&quot; size=&quot;1&quot;&gt;&lt;a style=&quot;font-size: 8px;&quot; href=&quot;https://docs.substrate.io/main-docs/build/build-process/&quot; hreflang=&quot;en&quot;&gt;Execution environment&lt;br&gt;&lt;/a&gt;&lt;/font&gt;&lt;/div&gt;&lt;div style=&quot;font-size: 8px;&quot;&gt;&lt;font style=&quot;font-size: 7px;&quot;&gt;The outer node is responsible for selecting the execution &lt;br&gt;environment—WebAssembly or native Rust—for the runtime to use then &lt;br&gt;dispatching calls to the runtime selected.&lt;/font&gt;&lt;/div&gt;" style="rounded=1;whiteSpace=wrap;html=1;absoluteArcSize=1;arcSize=14;strokeWidth=2;" vertex="1" parent="1">
          <mxGeometry x="800" y="560" width="100" height="100" as="geometry" />
        </mxCell>
        <mxCell id="SqE_fc_OxPAuAf_JFMiW-16" value="" style="strokeWidth=2;html=1;shape=mxgraph.flowchart.annotation_1;align=left;pointerEvents=1;rotation=90;" vertex="1" parent="1">
          <mxGeometry x="353.75" y="481" width="19.25" height="136.25" as="geometry" />
        </mxCell>
        <mxCell id="SqE_fc_OxPAuAf_JFMiW-17" value="" style="endArrow=none;html=1;rounded=0;fontSize=7;entryX=0.5;entryY=1;entryDx=0;entryDy=0;exitX=0;exitY=0.448;exitDx=0;exitDy=0;exitPerimeter=0;" edge="1" parent="1" source="SqE_fc_OxPAuAf_JFMiW-6" target="SqE_fc_OxPAuAf_JFMiW-1">
          <mxGeometry width="50" height="50" relative="1" as="geometry">
            <mxPoint x="410" y="610" as="sourcePoint" />
            <mxPoint x="460" y="560" as="targetPoint" />
          </mxGeometry>
        </mxCell>
        <mxCell id="SqE_fc_OxPAuAf_JFMiW-22" value="" style="edgeStyle=orthogonalEdgeStyle;rounded=0;orthogonalLoop=1;jettySize=auto;html=1;fontSize=7;" edge="1" parent="1" source="SqE_fc_OxPAuAf_JFMiW-18" target="SqE_fc_OxPAuAf_JFMiW-20">
          <mxGeometry relative="1" as="geometry" />
        </mxCell>
        <mxCell id="SqE_fc_OxPAuAf_JFMiW-18" value="Runtime" style="ellipse;whiteSpace=wrap;html=1;aspect=fixed;fillColor=#f8cecc;strokeColor=#b85450;" vertex="1" parent="1">
          <mxGeometry x="377.5" y="-80" width="255" height="255" as="geometry" />
        </mxCell>
        <mxCell id="SqE_fc_OxPAuAf_JFMiW-20" value="&lt;font style=&quot;font-size: 8px;&quot;&gt;The runtime determines whether transactions are valid or invalid and is &lt;br/&gt;responsible for handling changes to the blockchain&#39;s state transition &lt;br/&gt;function.&lt;/font&gt;" style="rounded=1;whiteSpace=wrap;html=1;absoluteArcSize=1;arcSize=14;strokeWidth=2;" vertex="1" parent="1">
          <mxGeometry x="176.86" y="-2.5" width="100" height="100" as="geometry" />
        </mxCell>
        <mxCell id="SqE_fc_OxPAuAf_JFMiW-24" value="" style="shape=flexArrow;endArrow=classic;startArrow=classic;html=1;rounded=0;fontSize=8;entryX=0.5;entryY=1;entryDx=0;entryDy=0;exitX=0.5;exitY=0;exitDx=0;exitDy=0;fillColor=#d80073;strokeColor=#A50040;" edge="1" parent="1" source="SqE_fc_OxPAuAf_JFMiW-1" target="SqE_fc_OxPAuAf_JFMiW-18">
          <mxGeometry width="100" height="100" relative="1" as="geometry">
            <mxPoint x="550" y="370" as="sourcePoint" />
            <mxPoint x="650" y="270" as="targetPoint" />
          </mxGeometry>
        </mxCell>
        <mxCell id="SqE_fc_OxPAuAf_JFMiW-29" value="" style="edgeStyle=orthogonalEdgeStyle;rounded=0;orthogonalLoop=1;jettySize=auto;html=1;fontSize=8;" edge="1" parent="1" source="SqE_fc_OxPAuAf_JFMiW-25" target="SqE_fc_OxPAuAf_JFMiW-18">
          <mxGeometry relative="1" as="geometry">
            <Array as="points">
              <mxPoint x="640" y="-27" />
              <mxPoint x="640" y="47" />
            </Array>
          </mxGeometry>
        </mxCell>
        <mxCell id="SqE_fc_OxPAuAf_JFMiW-25" value="Light&amp;nbsp; Client" style="ellipse;whiteSpace=wrap;html=1;fontSize=8;" vertex="1" parent="1">
          <mxGeometry x="660" y="-57.5" width="120" height="60" as="geometry" />
        </mxCell>
        <mxCell id="SqE_fc_OxPAuAf_JFMiW-30" value="" style="edgeStyle=orthogonalEdgeStyle;rounded=0;orthogonalLoop=1;jettySize=auto;html=1;fontSize=8;" edge="1" parent="1" source="SqE_fc_OxPAuAf_JFMiW-26" target="SqE_fc_OxPAuAf_JFMiW-18">
          <mxGeometry relative="1" as="geometry" />
        </mxCell>
        <mxCell id="SqE_fc_OxPAuAf_JFMiW-26" value="RPC Endpoint" style="ellipse;whiteSpace=wrap;html=1;fontSize=8;" vertex="1" parent="1">
          <mxGeometry x="666.63" y="17.5" width="120" height="60" as="geometry" />
        </mxCell>
        <mxCell id="SqE_fc_OxPAuAf_JFMiW-31" value="" style="edgeStyle=orthogonalEdgeStyle;rounded=0;orthogonalLoop=1;jettySize=auto;html=1;fontSize=8;" edge="1" parent="1" source="SqE_fc_OxPAuAf_JFMiW-27" target="SqE_fc_OxPAuAf_JFMiW-18">
          <mxGeometry relative="1" as="geometry">
            <Array as="points">
              <mxPoint x="640" y="123" />
              <mxPoint x="640" y="47" />
            </Array>
          </mxGeometry>
        </mxCell>
        <mxCell id="SqE_fc_OxPAuAf_JFMiW-27" value="Browser Extention" style="ellipse;whiteSpace=wrap;html=1;fontSize=8;" vertex="1" parent="1">
          <mxGeometry x="660" y="92.5" width="120" height="60" as="geometry" />
        </mxCell>
        <mxCell id="SqE_fc_OxPAuAf_JFMiW-33" value="" style="edgeStyle=orthogonalEdgeStyle;rounded=0;orthogonalLoop=1;jettySize=auto;html=1;fontSize=8;" edge="1" parent="1" source="SqE_fc_OxPAuAf_JFMiW-32" target="SqE_fc_OxPAuAf_JFMiW-25">
          <mxGeometry relative="1" as="geometry" />
        </mxCell>
        <mxCell id="SqE_fc_OxPAuAf_JFMiW-32" value="&lt;font style=&quot;font-size: 6px;&quot;&gt;Light nodes enable users to connect to a Substrate runtime directly &lt;br&gt;using a browser, browser extension, mobile device, or desktop computer.&lt;br&gt;&lt;/font&gt;" style="strokeWidth=2;html=1;shape=mxgraph.flowchart.document2;whiteSpace=wrap;size=0.25;fontSize=8;" vertex="1" parent="1">
          <mxGeometry x="830" y="-66.25" width="100" height="77.5" as="geometry" />
        </mxCell>
        <mxCell id="SqE_fc_OxPAuAf_JFMiW-36" value="" style="edgeStyle=orthogonalEdgeStyle;rounded=0;orthogonalLoop=1;jettySize=auto;html=1;fontSize=5;" edge="1" parent="1" source="SqE_fc_OxPAuAf_JFMiW-34">
          <mxGeometry relative="1" as="geometry">
            <mxPoint x="790" y="50" as="targetPoint" />
            <Array as="points">
              <mxPoint x="820" y="50" />
              <mxPoint x="820" y="50" />
            </Array>
          </mxGeometry>
        </mxCell>
        <mxCell id="SqE_fc_OxPAuAf_JFMiW-34" value="&lt;div style=&quot;font-size: 5px;&quot; align=&quot;left&quot;&gt;&lt;font style=&quot;font-size: 5px;&quot;&gt;With a light client node, you can use RPC endpoints written in Rust, &lt;/font&gt;&lt;font style=&quot;font-size: 5px;&quot;&gt;&lt;br&gt;&lt;font style=&quot;font-size: 5px;&quot;&gt;JavaScript, or other languages to connect to the WebAssembly execution &lt;/font&gt;&lt;font style=&quot;font-size: 5px;&quot;&gt;environment to read block headers, submit transactions, and view the &lt;/font&gt;&lt;font style=&quot;font-size: 5px;&quot;&gt;results of transactions.&lt;/font&gt;&lt;/font&gt;&lt;/div&gt;" style="strokeWidth=2;html=1;shape=mxgraph.flowchart.document2;whiteSpace=wrap;size=0.25;fontSize=6;align=left;" vertex="1" parent="1">
          <mxGeometry x="830" y="30" width="100" height="80" as="geometry" />
        </mxCell>
      </root>
    </mxGraphModel>
  </diagram>
</mxfile>
